PathFileType	4	(X/Y/Z)	./resultDataOpenSim/trcMotMarkerGrf/sub06/qtm-15-06.trc
DataRate	CameraRate	NumFrames	NumMarkers	Units	OrigDataRate	OrigDataStartFrame	OrigNumFrames
250.000000	250.000000	12	24	m	250.000000	470	536
Frame#	Time	L.Toe.Tip			R.Toe.Tip			L.Ankle.Lat			R.Ankle.Lat			L.Ankle.Med			R.Ankle.Med			L.Heel			R.Heel			L.Knee.Lat			R.Knee.Lat			L.Knee.Med			R.Knee.Med			L.Thigh.Upper			R.Thigh.Upper			L.ASIS			R.ASIS			V.Sacral			L.Acromium			R.Acromium			C7			L.Elbow			R.Elbow			L.Wrist.Lat			R.Wrist.Lat
		X1	Y1	Z1	X2	Y2	Z2	X3	Y3	Z3	X4	Y4	Z4	X5	Y5	Z5	X6	Y6	Z6	X7	Y7	Z7	X8	Y8	Z8	X9	Y9	Z9	X10	Y10	Z10	X11	Y11	Z11	X12	Y12	Z12	X13	Y13	Z13	X14	Y14	Z14	X15	Y15	Z15	X16	Y16	Z16	X17	Y17	Z17	X18	Y18	Z18	X19	Y19	Z19	X20	Y20	Z20	X21	Y21	Z21	X22	Y22	Z22	X23	Y23	Z23	X24	Y24	Z24

470	1.876	1.6549336	0.033699889	-0.12487477	1.6115796	0.06660469	0.12366117	1.529302	0.069528664	-0.14322517	1.509512	0.15894814	0.12544182	1.528761	0.080905885	-0.05597526	1.5479782	0.16304424	0.043235073	1.4548155	0.042797805	-0.097961751	1.4655493	0.1569162	0.055970546	1.6156255	0.43492752	-0.14945595	1.721946	0.48105912	0.14091907	1.5870143	0.43471283	-0.030228088	1.7192092	0.46282523	0.010521814	1.5737604	0.82899433	-0.21176873	1.5444382	0.81733213	0.13710974	1.6418858	0.87928532	-0.16324362	1.6364683	0.88069939	0.080393732	1.4489151	0.94204168	-0.039102508	1.5761391	1.3541162	-0.23001742	1.5619251	1.345491	0.1329788	1.4867896	1.3840526	-0.052843871	1.5332537	1.0324813	-0.28356897	1.4883467	1.0304732	0.20042514	1.716705	0.86135793	-0.29921138	1.6791656	0.86817332	0.19623515
471	1.88	1.6549554	0.033691826	-0.12487654	1.6288676	0.066009639	0.12414246	1.5293213	0.06968607	-0.14313865	1.5242014	0.15525969	0.12521476	1.5288107	0.081016003	-0.055866349	1.5627176	0.16042858	0.042794306	1.4548608	0.043007726	-0.09776489	1.479985	0.15172073	0.055834433	1.6160035	0.43488484	-0.14934836	1.7290612	0.48303854	0.14028481	1.5871557	0.4347987	-0.029849176	1.7260482	0.46509217	0.010256345	1.5783354	0.82920487	-0.21162258	1.5508782	0.81897488	0.13708166	1.6462595	0.87980887	-0.16326761	1.6415277	0.88213393	0.080023849	1.4536096	0.94260517	-0.039361493	1.581075	1.3551582	-0.2300457	1.5663512	1.3459284	0.13283976	1.4913557	1.3845459	-0.053050462	1.5400307	1.0330542	-0.28413667	1.4909218	1.0315436	0.19944234	1.7263924	0.86444271	-0.29734589	1.6780914	0.86537253	0.19913159
472	1.884	1.6549719	0.033684052	-0.12487334	1.6461674	0.065421428	0.12460553	1.5293437	0.069846145	-0.14304752	1.539005	0.15154525	0.12499373	1.528852	0.081121987	-0.055758791	1.578027	0.15729343	0.042708394	1.4549164	0.043212949	-0.097571661	1.492299	0.14743979	0.056347952	1.6163867	0.43483584	-0.14927929	1.7360446	0.48489829	0.13966912	1.5881883	0.43481602	-0.029732821	1.7327415	0.46712498	0.010135816	1.5828197	0.82935251	-0.21147742	1.5598153	0.82004557	0.13637461	1.6502475	0.88023438	-0.16335082	1.6465744	0.88345985	0.07969202	1.4582521	0.94311566	-0.039679505	1.5859783	1.3560656	-0.23004941	1.5707787	1.3462836	0.13272222	1.4959171	1.3849793	-0.05323728	1.5467743	1.0335811	-0.28465328	1.4935137	1.0325493	0.19850079	1.7360242	0.86751975	-0.2954623	1.6769419	0.86271226	0.20193083
473	1.888	1.6549828	0.033677006	-0.12486771	1.6634694	0.064832001	0.12505741	1.5293677	0.070011333	-0.14295174	1.5539468	0.14781291	0.12478076	1.5289017	0.081238334	-0.055656686	1.5938287	0.15372972	0.04286975	1.4549756	0.043421999	-0.097388425	1.5050629	0.14303901	0.05682468	1.6167865	0.43477817	-0.14924192	1.7429095	0.4866391	0.13907059	1.5902378	0.43476779	-0.029863021	1.7392703	0.46890567	0.010093894	1.587175	0.82943417	-0.2113086	1.5696708	0.82058336	0.13546795	1.654254	0.8805855	-0.1634172	1.6515988	0.88467716	0.079387853	1.4628589	0.94355243	-0.040020061	1.5908712	1.3568589	-0.23003894	1.5752109	1.3465548	0.13262791	1.5004786	1.3853663	-0.053405053	1.553496	1.0340462	-0.28513614	1.4961032	1.0334967	0.19759911	1.7455909	0.87058309	-0.29356488	1.6757321	0.86017903	0.20465222
474	1.892	1.6549905	0.033669325	-0.12486133	1.6807927	0.064283469	0.12549831	1.5293903	0.070183218	-0.14284732	1.5690512	0.14406693	0.12457427	1.5289488	0.081385015	-0.05555566	1.6099772	0.15013615	0.042913268	1.4550317	0.043642208	-0.09721396	1.5196005	0.1380079	0.056843926	1.6172119	0.43471238	-0.14923519	1.7496513	0.48825379	0.13848465	1.5923701	0.43473062	-0.029996158	1.7455915	0.47052213	0.010019101	1.5914699	0.82945426	-0.2110226	1.578242	0.82076767	0.13499433	1.6584848	0.88085938	-0.16343593	1.6566088	0.88577937	0.079103837	1.4675246	0.94390574	-0.040185961	1.5957878	1.3575619	-0.23003194	1.5796559	1.3467395	0.13256006	1.5050472	1.3857018	-0.053554945	1.560222	1.034423	-0.28562394	1.4987104	1.0343726	0.19673587	1.7550803	0.87362649	-0.29165541	1.6744856	0.85775892	0.20733194
475	1.896	1.6549992	0.033659416	-0.1248553	1.698161	0.063832581	0.12591811	1.5294099	0.070362237	-0.14272491	1.5843146	0.14032097	0.12436825	1.5289885	0.081568254	-0.055452049	1.626603	0.14673779	0.042489607	1.4550795	0.043877299	-0.097041677	1.5354366	0.13257153	0.056429805	1.6176688	0.4346395	-0.14925778	1.75626	0.48973263	0.13790562	1.5935688	0.43481242	-0.029899627	1.7516861	0.47208528	0.0098493834	1.5957613	0.82942966	-0.21055026	1.5849652	0.82083744	0.13508045	1.6629015	0.88104101	-0.16342649	1.6616189	0.88675258	0.078839521	1.4723656	0.94418826	-0.039931407	1.6007452	1.3581856	-0.23004168	1.584121	1.3468332	0.1325191	1.5096251	1.3859664	-0.053683486	1.5669825	1.0347092	-0.28614688	1.5014096	1.0351564	0.19590916	1.7644322	0.87665338	-0.28974521	1.6732178	0.85544028	0.2099861
476	1.9	1.6550119	0.03364587	-0.12485109	1.7155798	0.063512826	0.12630157	1.5294292	0.070546243	-0.14257977	1.599717	0.13659735	0.1241573	1.5290485	0.081768561	-0.055350674	1.6438789	0.14349985	0.041501642	1.4551155	0.044127765	-0.096864925	1.5518023	0.12706606	0.055754423	1.61816	0.43456023	-0.14930393	1.7627211	0.49106653	0.13733068	1.593793	0.43498749	-0.029563877	1.757619	0.47357985	0.0095978921	1.6000372	0.8293851	-0.20999186	1.5906329	0.82111078	0.13541806	1.6674032	0.88111853	-0.16341592	1.6666392	0.88758257	0.078595069	1.4773847	0.94441407	-0.039272691	1.6057177	1.3587276	-0.2300597	1.5886039	1.3468347	0.13250022	1.5142053	1.3861417	-0.053793348	1.5737931	1.0349287	-0.28670337	1.504283	1.0358366	0.1951197	1.7735172	0.87968379	-0.28785711	1.6719363	0.85321401	0.212609
477	1.904	1.6550297	0.033627663	-0.12485038	1.7330465	0.063334625	0.12664306	1.5294564	0.070727723	-0.14242715	1.6152523	0.13291321	0.12394184	1.529161	0.081956544	-0.055261331	1.661407	0.14040862	0.04026655	1.4551464	0.044386967	-0.096682691	1.5683257	0.12164944	0.054996603	1.6186913	0.43447305	-0.14936613	1.7690187	0.49224716	0.13676348	1.5938649	0.43512224	-0.029180717	1.7634823	0.4748753	0.0093096121	1.604181	0.82930687	-0.20969657	1.595947	0.82179406	0.13574118	1.6718967	0.88108403	-0.16342271	1.671677	0.88826	0.07836845	1.4824209	0.94458565	-0.038565188	1.6106582	1.3591785	-0.23006363	1.5930891	1.346754	0.13249397	1.5187838	1.3862275	-0.05388967	1.5806387	1.0350953	-0.28725608	1.5073123	1.0364175	0.19437318	1.7822637	0.88273205	-0.28600375	1.6706641	0.85108022	0.21519094
478	1.908	1.6550515	0.033604726	-0.12485394	1.7505602	0.063299508	0.12694553	1.5294998	0.070898529	-0.14229247	1.6309358	0.12927496	0.1237264	1.5293302	0.082119158	-0.05518959	1.6783279	0.13757115	0.039316617	1.4551892	0.0446421	-0.09649873	1.5848867	0.11636211	0.054304023	1.619277	0.43437395	-0.14943879	1.7751605	0.49326892	0.13621232	1.5944138	0.43514514	-0.028913088	1.7692985	0.47587444	0.0090206051	1.6080498	0.82912668	-0.21000997	1.6012265	0.82271776	0.13598841	1.6762753	0.88092658	-0.16346713	1.6767317	0.88878065	0.078155346	1.4873076	0.94469852	-0.038155188	1.615549	1.3595322	-0.23004039	1.5975623	1.3466047	0.13249458	1.5233687	1.3862422	-0.053967628	1.587493	1.0351988	-0.28777056	1.5103095	1.0369229	0.19367548	1.7908607	0.88576719	-0.28416229	1.6694441	0.84904839	0.21772801
479	1.912	1.6550765	0.033579031	-0.12486093	1.7681172	0.063411109	0.12720623	1.529562	0.07105938	-0.14218374	1.6467819	0.1256878	0.12351176	1.5295414	0.082264013	-0.055132519	1.6941884	0.13507103	0.038906086	1.4552545	0.044884551	-0.096315142	1.601467	0.11121127	0.053732383	1.6199332	0.43426132	-0.14951908	1.7811793	0.49412624	0.13568327	1.5954421	0.43507958	-0.02878029	1.775036	0.47657842	0.0087377576	1.6116686	0.82880355	-0.21082472	1.6066058	0.82349613	0.13620372	1.6804155	0.88063397	-0.1635787	1.6817985	0.88914328	0.077949796	1.4920315	0.94474147	-0.03809536	1.6204085	1.3597915	-0.22998843	1.6020274	1.3463936	0.13250811	1.5279701	1.3862046	-0.05402157	1.5943516	1.0352261	-0.28825656	1.5130461	1.0373897	0.19302545	1.7996962	0.88872061	-0.28228419	1.6682921	0.84711557	0.22022277
480	1.916	1.6551043	0.033554309	-0.12487033	1.7857023	0.06367788	0.12741625	1.5296394	0.0712185	-0.14209055	1.6627862	0.12216163	0.12329106	1.5297793	0.082406222	-0.05508182	1.7091988	0.13290342	0.038921715	1.4553387	0.045115935	-0.096133348	1.6180285	0.10625249	0.053254813	1.6206628	0.43413906	-0.14960644	1.7871004	0.49481218	0.13517252	1.5967106	0.43497225	-0.028726447	1.7806689	0.47703327	0.0084468269	1.6152484	0.82837437	-0.21163073	1.6120737	0.82391664	0.13642188	1.6843036	0.88021457	-0.16376886	1.6868793	0.8893494	0.077748899	1.496674	0.94469937	-0.038226632	1.6252598	1.3599642	-0.22991173	1.6064998	1.3461208	0.13254466	1.5325933	1.3861221	-0.054053864	1.6012293	1.0351784	-0.2887494	1.5155079	1.0378383	0.19241425	1.8089905	0.89154968	-0.28034122	1.6671687	0.84525301	0.2226801
481	1.92	1.6551344	0.033532761	-0.12488291	1.8032929	0.064108903	0.12757255	1.5297283	0.07138126	-0.14200575	1.678939	0.1186994	0.12305323	1.5300297	0.082558484	-0.055028268	1.7237295	0.13103742	0.039206493	1.4554323	0.04534327	-0.095961176	1.6345021	0.10161112	0.052788832	1.6214564	0.43401271	-0.14969963	1.7929224	0.49532289	0.13466311	1.5980454	0.4348573	-0.028696151	1.7861876	0.47727623	0.0081387457	1.6189627	0.82788663	-0.2120747	1.6175423	0.82405319	0.13663541	1.6882157	0.87971778	-0.16399249	1.691977	0.88940417	0.077554745	1.5012941	0.94456601	-0.038365565	1.6301065	1.3600558	-0.22982027	1.6109865	1.3457845	0.13260428	1.5372388	1.3859935	-0.054067799	1.6081346	1.035063	-0.28926618	1.517897	1.0382575	0.19182965	1.8185743	0.89427722	-0.27835434	1.6660555	0.84343765	0.22509822
